<mxfile host="app.diagrams.net" agent="Mozilla/5.0 (Windows NT 10.0; Win64; x64) AppleWebKit/537.36 (KHTML, like Gecko) Chrome/138.0.0.0 Safari/537.36" version="28.0.4">
  <diagram name="Page-1" id="6133507b-19e7-1e82-6fc7-422aa6c4b21f">
    <mxGraphModel dx="1921" dy="626" grid="1" gridSize="10" guides="1" tooltips="1" connect="1" arrows="1" fold="1" page="1" pageScale="1" pageWidth="1100" pageHeight="850" background="none" math="0" shadow="0">
      <root>
        <mxCell id="0" />
        <mxCell id="1" parent="0" />
        <mxCell id="U9hzAt4yXVhz4hotrpFy-1" style="edgeStyle=orthogonalEdgeStyle;rounded=0;orthogonalLoop=1;jettySize=auto;html=1;exitX=1;exitY=0.5;exitDx=0;exitDy=0;entryX=0;entryY=0.5;entryDx=0;entryDy=0;" edge="1" parent="1" source="HztenYyuq_wtdhuzzUHY-1" target="HztenYyuq_wtdhuzzUHY-5">
          <mxGeometry relative="1" as="geometry" />
        </mxCell>
        <mxCell id="U9hzAt4yXVhz4hotrpFy-13" style="edgeStyle=orthogonalEdgeStyle;rounded=0;orthogonalLoop=1;jettySize=auto;html=1;exitX=0.75;exitY=1;exitDx=0;exitDy=0;entryX=0.75;entryY=0;entryDx=0;entryDy=0;" edge="1" parent="1" source="HztenYyuq_wtdhuzzUHY-1" target="HztenYyuq_wtdhuzzUHY-13">
          <mxGeometry relative="1" as="geometry" />
        </mxCell>
        <mxCell id="HztenYyuq_wtdhuzzUHY-1" value="&lt;span style=&quot;font-family: Verdana; font-weight: 700; text-wrap-mode: nowrap; background-color: transparent; color: light-dark(rgb(0, 0, 0), rgb(255, 255, 255));&quot;&gt;chargingStation&lt;/span&gt;" style="swimlane;fontStyle=0;childLayout=stackLayout;horizontal=1;startSize=26;fillColor=#E6D0DE;horizontalStack=0;resizeParent=1;resizeParentMax=0;resizeLast=0;collapsible=1;marginBottom=0;whiteSpace=wrap;html=1;" parent="1" vertex="1">
          <mxGeometry x="40" y="114" width="170" height="156" as="geometry" />
        </mxCell>
        <mxCell id="U9hzAt4yXVhz4hotrpFy-6" value="Property:&amp;nbsp;id" style="text;strokeColor=none;fillColor=#E6D0DE;align=left;verticalAlign=top;spacingLeft=4;spacingRight=4;overflow=hidden;rotatable=0;points=[[0,0.5],[1,0.5]];portConstraint=eastwest;whiteSpace=wrap;html=1;" vertex="1" parent="HztenYyuq_wtdhuzzUHY-1">
          <mxGeometry y="26" width="170" height="26" as="geometry" />
        </mxCell>
        <mxCell id="HztenYyuq_wtdhuzzUHY-2" value="Type:&amp;nbsp;ChargingStation&amp;nbsp;" style="text;strokeColor=none;fillColor=#E6D0DE;align=left;verticalAlign=top;spacingLeft=4;spacingRight=4;overflow=hidden;rotatable=0;points=[[0,0.5],[1,0.5]];portConstraint=eastwest;whiteSpace=wrap;html=1;" parent="HztenYyuq_wtdhuzzUHY-1" vertex="1">
          <mxGeometry y="52" width="170" height="26" as="geometry" />
        </mxCell>
        <mxCell id="HztenYyuq_wtdhuzzUHY-3" value="Property: stationName" style="text;strokeColor=none;fillColor=#E6D0DE;align=left;verticalAlign=top;spacingLeft=4;spacingRight=4;overflow=hidden;rotatable=0;points=[[0,0.5],[1,0.5]];portConstraint=eastwest;whiteSpace=wrap;html=1;" parent="HztenYyuq_wtdhuzzUHY-1" vertex="1">
          <mxGeometry y="78" width="170" height="26" as="geometry" />
        </mxCell>
        <mxCell id="U9hzAt4yXVhz4hotrpFy-5" value="Property:&amp;nbsp;&lt;span style=&quot;background-color: transparent;&quot;&gt;totalChargingPoints&lt;/span&gt;" style="text;strokeColor=none;fillColor=#E6D0DE;align=left;verticalAlign=top;spacingLeft=4;spacingRight=4;overflow=hidden;rotatable=0;points=[[0,0.5],[1,0.5]];portConstraint=eastwest;whiteSpace=wrap;html=1;" vertex="1" parent="HztenYyuq_wtdhuzzUHY-1">
          <mxGeometry y="104" width="170" height="26" as="geometry" />
        </mxCell>
        <mxCell id="HztenYyuq_wtdhuzzUHY-4" value="Property: socketType" style="text;strokeColor=none;fillColor=#E6D0DE;align=left;verticalAlign=top;spacingLeft=4;spacingRight=4;overflow=hidden;rotatable=0;points=[[0,0.5],[1,0.5]];portConstraint=eastwest;whiteSpace=wrap;html=1;" parent="HztenYyuq_wtdhuzzUHY-1" vertex="1">
          <mxGeometry y="130" width="170" height="26" as="geometry" />
        </mxCell>
        <mxCell id="U9hzAt4yXVhz4hotrpFy-2" style="edgeStyle=orthogonalEdgeStyle;rounded=0;orthogonalLoop=1;jettySize=auto;html=1;exitX=0;exitY=0.75;exitDx=0;exitDy=0;entryX=1;entryY=0.75;entryDx=0;entryDy=0;" edge="1" parent="1" source="HztenYyuq_wtdhuzzUHY-5" target="HztenYyuq_wtdhuzzUHY-1">
          <mxGeometry relative="1" as="geometry" />
        </mxCell>
        <mxCell id="HztenYyuq_wtdhuzzUHY-5" value="&lt;div&gt;&lt;font face=&quot;Verdana&quot;&gt;&lt;span style=&quot;text-wrap-mode: nowrap;&quot;&gt;&lt;b&gt;chargingPoint&lt;/b&gt;&lt;/span&gt;&lt;/font&gt;&lt;/div&gt;" style="swimlane;fontStyle=0;childLayout=stackLayout;horizontal=1;startSize=26;fillColor=#E6D0DE;horizontalStack=0;resizeParent=1;resizeParentMax=0;resizeLast=0;collapsible=1;marginBottom=0;whiteSpace=wrap;html=1;" parent="1" vertex="1">
          <mxGeometry x="425" y="110" width="165" height="164" as="geometry" />
        </mxCell>
        <mxCell id="HztenYyuq_wtdhuzzUHY-6" value="Property:&amp;nbsp;id" style="text;strokeColor=none;fillColor=#E6D0DE;align=left;verticalAlign=top;spacingLeft=4;spacingRight=4;overflow=hidden;rotatable=0;points=[[0,0.5],[1,0.5]];portConstraint=eastwest;whiteSpace=wrap;html=1;" parent="HztenYyuq_wtdhuzzUHY-5" vertex="1">
          <mxGeometry y="26" width="165" height="26" as="geometry" />
        </mxCell>
        <mxCell id="HztenYyuq_wtdhuzzUHY-7" value="Type:&amp;nbsp;ChargingPoint" style="text;strokeColor=none;fillColor=#E6D0DE;align=left;verticalAlign=top;spacingLeft=4;spacingRight=4;overflow=hidden;rotatable=0;points=[[0,0.5],[1,0.5]];portConstraint=eastwest;whiteSpace=wrap;html=1;" parent="HztenYyuq_wtdhuzzUHY-5" vertex="1">
          <mxGeometry y="52" width="165" height="26" as="geometry" />
        </mxCell>
        <mxCell id="HztenYyuq_wtdhuzzUHY-8" value="Property:&amp;nbsp;chargingType" style="text;strokeColor=none;fillColor=#E6D0DE;align=left;verticalAlign=top;spacingLeft=4;spacingRight=4;overflow=hidden;rotatable=0;points=[[0,0.5],[1,0.5]];portConstraint=eastwest;whiteSpace=wrap;html=1;" parent="HztenYyuq_wtdhuzzUHY-5" vertex="1">
          <mxGeometry y="78" width="165" height="26" as="geometry" />
        </mxCell>
        <mxCell id="U9hzAt4yXVhz4hotrpFy-7" value="Property:&amp;nbsp;connectorTypes" style="text;strokeColor=none;fillColor=#E6D0DE;align=left;verticalAlign=top;spacingLeft=4;spacingRight=4;overflow=hidden;rotatable=0;points=[[0,0.5],[1,0.5]];portConstraint=eastwest;whiteSpace=wrap;html=1;" vertex="1" parent="HztenYyuq_wtdhuzzUHY-5">
          <mxGeometry y="104" width="165" height="30" as="geometry" />
        </mxCell>
        <mxCell id="U9hzAt4yXVhz4hotrpFy-20" value="Property:&amp;nbsp;maxPowerOutput" style="text;strokeColor=none;fillColor=#E6D0DE;align=left;verticalAlign=top;spacingLeft=4;spacingRight=4;overflow=hidden;rotatable=0;points=[[0,0.5],[1,0.5]];portConstraint=eastwest;whiteSpace=wrap;html=1;" vertex="1" parent="HztenYyuq_wtdhuzzUHY-5">
          <mxGeometry y="134" width="165" height="30" as="geometry" />
        </mxCell>
        <mxCell id="HztenYyuq_wtdhuzzUHY-9" value="&lt;font face=&quot;Verdana&quot;&gt;&lt;span style=&quot;text-wrap-mode: nowrap;&quot;&gt;&lt;b&gt;E-Vehicle&lt;/b&gt;&lt;/span&gt;&lt;/font&gt;" style="swimlane;fontStyle=0;childLayout=stackLayout;horizontal=1;startSize=26;fillColor=#E6D0DE;horizontalStack=0;resizeParent=1;resizeParentMax=0;resizeLast=0;collapsible=1;marginBottom=0;whiteSpace=wrap;html=1;" parent="1" vertex="1">
          <mxGeometry x="920" y="140" width="140" height="104" as="geometry" />
        </mxCell>
        <mxCell id="HztenYyuq_wtdhuzzUHY-10" value="+ field: type" style="text;strokeColor=none;fillColor=#E6D0DE;align=left;verticalAlign=top;spacingLeft=4;spacingRight=4;overflow=hidden;rotatable=0;points=[[0,0.5],[1,0.5]];portConstraint=eastwest;whiteSpace=wrap;html=1;" parent="HztenYyuq_wtdhuzzUHY-9" vertex="1">
          <mxGeometry y="26" width="140" height="26" as="geometry" />
        </mxCell>
        <mxCell id="HztenYyuq_wtdhuzzUHY-11" value="+ field: type" style="text;strokeColor=none;fillColor=#E6D0DE;align=left;verticalAlign=top;spacingLeft=4;spacingRight=4;overflow=hidden;rotatable=0;points=[[0,0.5],[1,0.5]];portConstraint=eastwest;whiteSpace=wrap;html=1;" parent="HztenYyuq_wtdhuzzUHY-9" vertex="1">
          <mxGeometry y="52" width="140" height="26" as="geometry" />
        </mxCell>
        <mxCell id="HztenYyuq_wtdhuzzUHY-12" value="+ field: type" style="text;strokeColor=none;fillColor=#E6D0DE;align=left;verticalAlign=top;spacingLeft=4;spacingRight=4;overflow=hidden;rotatable=0;points=[[0,0.5],[1,0.5]];portConstraint=eastwest;whiteSpace=wrap;html=1;" parent="HztenYyuq_wtdhuzzUHY-9" vertex="1">
          <mxGeometry y="78" width="140" height="26" as="geometry" />
        </mxCell>
        <mxCell id="U9hzAt4yXVhz4hotrpFy-14" style="edgeStyle=orthogonalEdgeStyle;rounded=0;orthogonalLoop=1;jettySize=auto;html=1;exitX=0.25;exitY=0;exitDx=0;exitDy=0;entryX=0.25;entryY=1;entryDx=0;entryDy=0;" edge="1" parent="1" source="HztenYyuq_wtdhuzzUHY-13" target="HztenYyuq_wtdhuzzUHY-1">
          <mxGeometry relative="1" as="geometry" />
        </mxCell>
        <mxCell id="HztenYyuq_wtdhuzzUHY-13" value="&lt;span style=&quot;font-family: Verdana; font-weight: 700; text-wrap-mode: nowrap; background-color: transparent; color: light-dark(rgb(0, 0, 0), rgb(255, 255, 255));&quot;&gt;stationStatus&lt;/span&gt;" style="swimlane;fontStyle=0;childLayout=stackLayout;horizontal=1;startSize=26;fillColor=#D5E8D4;horizontalStack=0;resizeParent=1;resizeParentMax=0;resizeLast=0;collapsible=1;marginBottom=0;whiteSpace=wrap;html=1;" parent="1" vertex="1">
          <mxGeometry x="40" y="380" width="170" height="130" as="geometry" />
        </mxCell>
        <mxCell id="HztenYyuq_wtdhuzzUHY-14" value="Property:&amp;nbsp;id" style="text;strokeColor=none;fillColor=#D5E8D4;align=left;verticalAlign=top;spacingLeft=4;spacingRight=4;overflow=hidden;rotatable=0;points=[[0,0.5],[1,0.5]];portConstraint=eastwest;whiteSpace=wrap;html=1;" parent="HztenYyuq_wtdhuzzUHY-13" vertex="1">
          <mxGeometry y="26" width="170" height="26" as="geometry" />
        </mxCell>
        <mxCell id="HztenYyuq_wtdhuzzUHY-15" value="Type:&amp;nbsp;ChargingStationStatus&amp;nbsp;" style="text;strokeColor=none;fillColor=#D5E8D4;align=left;verticalAlign=top;spacingLeft=4;spacingRight=4;overflow=hidden;rotatable=0;points=[[0,0.5],[1,0.5]];portConstraint=eastwest;whiteSpace=wrap;html=1;" parent="HztenYyuq_wtdhuzzUHY-13" vertex="1">
          <mxGeometry y="52" width="170" height="26" as="geometry" />
        </mxCell>
        <mxCell id="HztenYyuq_wtdhuzzUHY-16" value="Property:&amp;nbsp;availablePoints" style="text;strokeColor=none;fillColor=#D5E8D4;align=left;verticalAlign=top;spacingLeft=4;spacingRight=4;overflow=hidden;rotatable=0;points=[[0,0.5],[1,0.5]];portConstraint=eastwest;whiteSpace=wrap;html=1;" parent="HztenYyuq_wtdhuzzUHY-13" vertex="1">
          <mxGeometry y="78" width="170" height="26" as="geometry" />
        </mxCell>
        <mxCell id="U9hzAt4yXVhz4hotrpFy-19" value="Property:&amp;nbsp;&lt;span style=&quot;background-color: transparent;&quot;&gt;totalPoints&lt;/span&gt;" style="text;strokeColor=none;fillColor=#D5E8D4;align=left;verticalAlign=top;spacingLeft=4;spacingRight=4;overflow=hidden;rotatable=0;points=[[0,0.5],[1,0.5]];portConstraint=eastwest;whiteSpace=wrap;html=1;" vertex="1" parent="HztenYyuq_wtdhuzzUHY-13">
          <mxGeometry y="104" width="170" height="26" as="geometry" />
        </mxCell>
        <mxCell id="HztenYyuq_wtdhuzzUHY-17" value="&lt;span style=&quot;font-family: Verdana; font-weight: 700; text-wrap-mode: nowrap;&quot;&gt;pointStatus&lt;/span&gt;" style="swimlane;fontStyle=0;childLayout=stackLayout;horizontal=1;startSize=26;fillColor=#D5E8D4;horizontalStack=0;resizeParent=1;resizeParentMax=0;resizeLast=0;collapsible=1;marginBottom=0;whiteSpace=wrap;html=1;" parent="1" vertex="1">
          <mxGeometry x="425" y="386" width="160" height="78" as="geometry" />
        </mxCell>
        <mxCell id="HztenYyuq_wtdhuzzUHY-18" value="Property:&amp;nbsp;id" style="text;strokeColor=none;fillColor=#D5E8D4;align=left;verticalAlign=top;spacingLeft=4;spacingRight=4;overflow=hidden;rotatable=0;points=[[0,0.5],[1,0.5]];portConstraint=eastwest;whiteSpace=wrap;html=1;" parent="HztenYyuq_wtdhuzzUHY-17" vertex="1">
          <mxGeometry y="26" width="160" height="26" as="geometry" />
        </mxCell>
        <mxCell id="HztenYyuq_wtdhuzzUHY-19" value="Property:&amp;nbsp;pointStatus" style="text;strokeColor=none;fillColor=#D5E8D4;align=left;verticalAlign=top;spacingLeft=4;spacingRight=4;overflow=hidden;rotatable=0;points=[[0,0.5],[1,0.5]];portConstraint=eastwest;whiteSpace=wrap;html=1;" parent="HztenYyuq_wtdhuzzUHY-17" vertex="1">
          <mxGeometry y="52" width="160" height="26" as="geometry" />
        </mxCell>
        <mxCell id="HztenYyuq_wtdhuzzUHY-21" value="&lt;span style=&quot;font-family: Verdana; font-weight: 700; text-wrap-mode: nowrap; background-color: transparent; color: light-dark(rgb(0, 0, 0), rgb(255, 255, 255));&quot;&gt;chargingSession&lt;/span&gt;" style="swimlane;fontStyle=0;childLayout=stackLayout;horizontal=1;startSize=26;fillColor=#D5E8D4;horizontalStack=0;resizeParent=1;resizeParentMax=0;resizeLast=0;collapsible=1;marginBottom=0;whiteSpace=wrap;html=1;" parent="1" vertex="1">
          <mxGeometry x="700" y="200" width="160" height="156" as="geometry" />
        </mxCell>
        <mxCell id="HztenYyuq_wtdhuzzUHY-22" value="Property:&amp;nbsp;id" style="text;strokeColor=none;fillColor=#D5E8D4;align=left;verticalAlign=top;spacingLeft=4;spacingRight=4;overflow=hidden;rotatable=0;points=[[0,0.5],[1,0.5]];portConstraint=eastwest;whiteSpace=wrap;html=1;" parent="HztenYyuq_wtdhuzzUHY-21" vertex="1">
          <mxGeometry y="26" width="160" height="26" as="geometry" />
        </mxCell>
        <mxCell id="HztenYyuq_wtdhuzzUHY-23" value="Type:&amp;nbsp;chargingSession" style="text;strokeColor=none;fillColor=#D5E8D4;align=left;verticalAlign=top;spacingLeft=4;spacingRight=4;overflow=hidden;rotatable=0;points=[[0,0.5],[1,0.5]];portConstraint=eastwest;whiteSpace=wrap;html=1;" parent="HztenYyuq_wtdhuzzUHY-21" vertex="1">
          <mxGeometry y="52" width="160" height="26" as="geometry" />
        </mxCell>
        <mxCell id="HztenYyuq_wtdhuzzUHY-24" value="Property:&amp;nbsp;sessionStatus" style="text;strokeColor=none;fillColor=#D5E8D4;align=left;verticalAlign=top;spacingLeft=4;spacingRight=4;overflow=hidden;rotatable=0;points=[[0,0.5],[1,0.5]];portConstraint=eastwest;whiteSpace=wrap;html=1;" parent="HztenYyuq_wtdhuzzUHY-21" vertex="1">
          <mxGeometry y="78" width="160" height="26" as="geometry" />
        </mxCell>
        <mxCell id="U9hzAt4yXVhz4hotrpFy-25" value="Property:&amp;nbsp;sessionStartTime" style="text;strokeColor=none;fillColor=#D5E8D4;align=left;verticalAlign=top;spacingLeft=4;spacingRight=4;overflow=hidden;rotatable=0;points=[[0,0.5],[1,0.5]];portConstraint=eastwest;whiteSpace=wrap;html=1;" vertex="1" parent="HztenYyuq_wtdhuzzUHY-21">
          <mxGeometry y="104" width="160" height="26" as="geometry" />
        </mxCell>
        <mxCell id="U9hzAt4yXVhz4hotrpFy-26" value="Property: chargingStartTime" style="text;strokeColor=none;fillColor=#D5E8D4;align=left;verticalAlign=top;spacingLeft=4;spacingRight=4;overflow=hidden;rotatable=0;points=[[0,0.5],[1,0.5]];portConstraint=eastwest;whiteSpace=wrap;html=1;" vertex="1" parent="HztenYyuq_wtdhuzzUHY-21">
          <mxGeometry y="130" width="160" height="26" as="geometry" />
        </mxCell>
        <mxCell id="HztenYyuq_wtdhuzzUHY-25" value="&lt;b style=&quot;font-family: Verdana; text-wrap-mode: nowrap;&quot;&gt;E-VehicleStatus&lt;/b&gt;" style="swimlane;fontStyle=0;childLayout=stackLayout;horizontal=1;startSize=26;fillColor=#D5E8D4;horizontalStack=0;resizeParent=1;resizeParentMax=0;resizeLast=0;collapsible=1;marginBottom=0;whiteSpace=wrap;html=1;" parent="1" vertex="1">
          <mxGeometry x="920" y="350" width="140" height="104" as="geometry" />
        </mxCell>
        <mxCell id="HztenYyuq_wtdhuzzUHY-26" value="+ field: type" style="text;strokeColor=none;fillColor=#D5E8D4;align=left;verticalAlign=top;spacingLeft=4;spacingRight=4;overflow=hidden;rotatable=0;points=[[0,0.5],[1,0.5]];portConstraint=eastwest;whiteSpace=wrap;html=1;" parent="HztenYyuq_wtdhuzzUHY-25" vertex="1">
          <mxGeometry y="26" width="140" height="26" as="geometry" />
        </mxCell>
        <mxCell id="HztenYyuq_wtdhuzzUHY-27" value="+ field: type" style="text;strokeColor=none;fillColor=#D5E8D4;align=left;verticalAlign=top;spacingLeft=4;spacingRight=4;overflow=hidden;rotatable=0;points=[[0,0.5],[1,0.5]];portConstraint=eastwest;whiteSpace=wrap;html=1;" parent="HztenYyuq_wtdhuzzUHY-25" vertex="1">
          <mxGeometry y="52" width="140" height="26" as="geometry" />
        </mxCell>
        <mxCell id="HztenYyuq_wtdhuzzUHY-28" value="+ field: type" style="text;strokeColor=none;fillColor=#D5E8D4;align=left;verticalAlign=top;spacingLeft=4;spacingRight=4;overflow=hidden;rotatable=0;points=[[0,0.5],[1,0.5]];portConstraint=eastwest;whiteSpace=wrap;html=1;" parent="HztenYyuq_wtdhuzzUHY-25" vertex="1">
          <mxGeometry y="78" width="140" height="26" as="geometry" />
        </mxCell>
        <mxCell id="U9hzAt4yXVhz4hotrpFy-10" value="Relationship:refChargingStation" style="text;html=1;align=center;verticalAlign=middle;resizable=0;points=[];autosize=1;strokeColor=none;fillColor=none;" vertex="1" parent="1">
          <mxGeometry x="240" y="244" width="190" height="30" as="geometry" />
        </mxCell>
        <mxCell id="U9hzAt4yXVhz4hotrpFy-11" value="Relationship:refChargingPoints" style="text;html=1;align=center;verticalAlign=middle;resizable=0;points=[];autosize=1;strokeColor=none;fillColor=none;" vertex="1" parent="1">
          <mxGeometry x="235" y="160" width="190" height="30" as="geometry" />
        </mxCell>
        <mxCell id="U9hzAt4yXVhz4hotrpFy-15" value="Relationship:&lt;div&gt;refChargingStation&lt;/div&gt;" style="text;html=1;align=left;verticalAlign=middle;resizable=0;points=[];autosize=1;strokeColor=none;fillColor=none;" vertex="1" parent="1">
          <mxGeometry x="20" y="310" width="120" height="40" as="geometry" />
        </mxCell>
        <mxCell id="U9hzAt4yXVhz4hotrpFy-18" value="Relationship:&lt;div&gt;ChargingStationStatus&lt;/div&gt;" style="text;html=1;align=left;verticalAlign=middle;resizable=0;points=[];autosize=1;strokeColor=none;fillColor=none;" vertex="1" parent="1">
          <mxGeometry x="190" y="310" width="140" height="40" as="geometry" />
        </mxCell>
        <mxCell id="U9hzAt4yXVhz4hotrpFy-23" value="Relationship:&lt;div&gt;refChargingPoint&lt;/div&gt;" style="text;html=1;align=left;verticalAlign=middle;resizable=0;points=[];autosize=1;strokeColor=none;fillColor=none;" vertex="1" parent="1">
          <mxGeometry x="350" y="310" width="110" height="40" as="geometry" />
        </mxCell>
        <mxCell id="U9hzAt4yXVhz4hotrpFy-24" value="Relationship:&lt;div&gt;refChargingPointStatus&lt;/div&gt;" style="text;html=1;align=left;verticalAlign=middle;resizable=0;points=[];autosize=1;strokeColor=none;fillColor=none;" vertex="1" parent="1">
          <mxGeometry x="550" y="310" width="150" height="40" as="geometry" />
        </mxCell>
      </root>
    </mxGraphModel>
  </diagram>
</mxfile>
